<?xml version="1.0" encoding="utf-8"?>
<!-- Generator: Adobe Illustrator 18.0.0, SVG Export Plug-In . SVG Version: 6.00 Build 0)  -->
<!DOCTYPE svg PUBLIC "-//W3C//DTD SVG 1.1//EN" "http://www.w3.org/Graphics/SVG/1.1/DTD/svg11.dtd">
<svg version="1.1" id="Layer_2" xmlns="http://www.w3.org/2000/svg" xmlns:xlink="http://www.w3.org/1999/xlink" x="0px" y="0px"
	 viewBox="70.9 1.8 113.4 109.8" enable-background="new 70.9 1.8 113.4 109.8" xml:space="preserve">
<g>
	<circle fill="#FFFFFF" cx="95.5" cy="85.3" r="5.4"/>
	<path fill="#FFFFFF" d="M80.2,94.2l-4.9,6l5.3,5.3l6.2-5.1c1.3,0.7,2.7,1.2,4.2,1.5l0.8,8.2h3.7h0h3.7l0.8-8.2
		c1.5-0.3,2.9-0.9,4.2-1.5l6.2,5.1l5.3-5.3l-4.9-6c0.8-1.4,1.5-2.9,1.9-4.5l7.6-0.8v-7.4l-7.6-0.8c-0.4-1.6-1.1-3.1-1.9-4.5l4.9-6
		l-5.3-5.3l-6.2,5.1c-1.3-0.7-2.7-1.2-4.2-1.5l-0.8-8.2h-3.7h0h-3.7L91,68.6c-1.5,0.3-2.9,0.9-4.2,1.5l-6.2-5.1l-5.3,5.3l4.9,6
		c-0.8,1.4-1.5,2.9-1.9,4.5l-7.6,0.8V89l7.6,0.8C78.7,91.3,79.4,92.8,80.2,94.2z M95.5,74.1c6.2,0,11.2,5,11.2,11.2
		s-5,11.2-11.2,11.2s-11.2-5-11.2-11.2S89.4,74.1,95.5,74.1z"/>
	<circle fill="#FFFFFF" cx="159.3" cy="85.3" r="5.4"/>
	<path fill="#FFFFFF" d="M174.6,76.3l4.9-6l-5.3-5.3l-6.2,5.1c-1.3-0.7-2.7-1.2-4.2-1.5l-0.8-8.2h-3.7h0h-3.7l-0.8,8.2
		c-1.5,0.3-2.9,0.9-4.2,1.5l-6.2-5.1l-5.3,5.3l4.9,6c-0.8,1.4-1.5,2.9-1.9,4.5l-7.6,0.8V89l7.6,0.8c0.4,1.6,1.1,3.1,1.9,4.5l-4.9,6
		l5.3,5.3l6.2-5.1c1.3,0.7,2.7,1.2,4.2,1.5l0.8,8.2h3.7h0h3.7l0.8-8.2c1.5-0.3,2.9-0.9,4.2-1.5l6.2,5.1l5.3-5.3l-4.9-6
		c0.8-1.4,1.5-2.9,1.9-4.5l7.6-0.8v-7.4l-7.6-0.8C176.1,79.2,175.4,77.7,174.6,76.3z M159.3,96.5c-6.2,0-11.2-5-11.2-11.2
		s5-11.2,11.2-11.2s11.2,5,11.2,11.2S165.5,96.5,159.3,96.5z"/>
	<circle fill="#FFFFFF" cx="127.4" cy="28.6" r="5.4"/>
	<path fill="#FFFFFF" d="M102.6,24.9v7.4l7.6,0.8c0.4,1.6,1.1,3.1,1.9,4.5l-4.9,6l5.3,5.3l6.2-5.1c1.3,0.7,2.7,1.2,4.2,1.5l0.8,8.2
		h3.7h0h3.7l0.8-8.2c1.5-0.3,2.9-0.9,4.2-1.5l6.2,5.1l5.3-5.3l-4.9-6c0.8-1.4,1.5-2.9,1.9-4.5l7.6-0.8v-7.4l-7.6-0.8
		c-0.4-1.6-1.1-3.1-1.9-4.5l4.9-6l-5.3-5.3l-6.2,5.1c-1.3-0.7-2.7-1.2-4.2-1.5l-0.8-8.2h-3.7h0h-3.7l-0.8,8.2
		c-1.5,0.3-2.9,0.9-4.2,1.5l-6.2-5.1l-5.3,5.3l4.9,6c-0.8,1.4-1.5,2.9-1.9,4.5L102.6,24.9z M127.4,17.4c6.2,0,11.2,5,11.2,11.2
		s-5,11.2-11.2,11.2c-6.2,0-11.2-5-11.2-11.2C116.2,22.4,121.2,17.4,127.4,17.4z"/>
</g>
</svg>
