<?xml version="1.0" encoding="utf-8"?>
<!-- Generator: Adobe Illustrator 18.0.0, SVG Export Plug-In . SVG Version: 6.00 Build 0)  -->
<!DOCTYPE svg PUBLIC "-//W3C//DTD SVG 1.1//EN" "http://www.w3.org/Graphics/SVG/1.1/DTD/svg11.dtd">
<svg version="1.1" id="Layer_1" xmlns="http://www.w3.org/2000/svg" xmlns:xlink="http://www.w3.org/1999/xlink" x="0px" y="0px"
	 viewBox="70.9 1.8 113.4 109.8" enable-background="new 70.9 1.8 113.4 109.8" xml:space="preserve">
<g display="none">
	<rect x="-929.2" y="-295" display="inline" width="1435.8" height="708.6"/>
</g>
<g>
	<path fill="#FFFFFF" d="M94.2,77.6v31.6l2.6-1.3c3.4-1.7,13.2-5.7,17.9-3.4c6.5,3.1,22.3,7.1,33.1,7.1c1,0,2,0,2.9-0.1
		c11.6-0.9,29.2-15.3,32.5-19.8c1.9-2.7,0.9-4.5,0.3-5.1c-2.4-2.8-9-1.6-14.2,1c-7.2,3.6-24,8.4-35.2,3.9c20.7,1.4,21.6-0.5,22-1.6
		c0.4-1,0.4-2.1-0.2-3.1c-1.1-2.2-4.9-5.5-24.5-9.6c-20.6-4.3-35.3-0.1-35.9,0L94.2,77.6z M97.8,80.3c3.9-0.9,16.6-3.1,32.9,0.3
		c17.2,3.6,21,6.5,21.9,7.5c-3.3,0.6-15.1,0.2-25.2-0.7l-4.9-0.4l3.5,3.5c12.7,12.5,38.6,3.4,44.9,0.3c5.2-2.6,9.4-2.5,9.9-2.1
		c0,0,0,0.3-0.4,0.9c-2.8,4-19.6,17.5-29.9,18.4c-10,0.8-27.6-3.5-34.1-6.7c-1.5-0.7-3.3-1-5.2-1c-4.8,0-10.2,1.9-13.3,3.3
		L97.8,80.3L97.8,80.3z"/>
	<path fill="#FFFFFF" d="M90,77.2H70.9v34.3H90V77.2z M86.4,108h-12V80.7h12C86.4,80.7,86.4,108,86.4,108z"/>
	<polygon fill="#FFFFFF" points="105,1.8 105,65.3 168.5,65.3 168.5,61.7 108.5,61.7 108.5,1.8 	"/>
	<polygon fill="#FFFFFF" points="168.5,47.1 162.7,25.7 156.1,32.3 125.7,1.8 123.2,4.3 153.6,34.8 147,41.4 	"/>
</g>
<g display="none">
	<g display="inline">
		<polygon points="105,0 105,63.5 168.5,63.5 168.5,60 108.5,60 108.5,0 		"/>
		<polygon points="168.5,45.3 162.7,23.9 156.1,30.5 125.7,0 123.2,2.5 153.6,33 147,39.6 		"/>
		<path d="M95,109.7c0,0,13.4-6.8,20.1-3.5s25.1,7.9,36.2,7.1c11.1-0.9,28.8-15,32.2-19.7c3.4-4.7-4.4-5.3-12.1-1.5
			c-7.7,3.8-32.5,11.5-44.2,0c0,0,27.1,2.4,28.1,0c1-2.4-3-6.2-24.1-10.6c-21.1-4.4-36.2,0-36.2,0L95,109.7L95,109.7z"/>
		<rect x="70.9" y="81.5" width="16.1" height="31.8"/>
	</g>
</g>
</svg>
