<?xml version="1.0" encoding="utf-8"?>
<!-- Generator: Adobe Illustrator 18.0.0, SVG Export Plug-In . SVG Version: 6.00 Build 0)  -->
<!DOCTYPE svg PUBLIC "-//W3C//DTD SVG 1.1//EN" "http://www.w3.org/Graphics/SVG/1.1/DTD/svg11.dtd">
<svg version="1.1" id="Layer_3" xmlns="http://www.w3.org/2000/svg" xmlns:xlink="http://www.w3.org/1999/xlink" x="0px" y="0px"
	 viewBox="70.9 1.8 113.4 109.8" enable-background="new 70.9 1.8 113.4 109.8" xml:space="preserve">
<g>
	<path fill="#FFFFFF" d="M184.1,48.8H70.7v59.4h113.4V48.8z M180.6,104.6H74.3V52.3h106.3V104.6z"/>
	<polygon fill="#FFFFFF" points="79.5,57 79.5,66.3 88.8,57 	"/>
	<polygon fill="#FFFFFF" points="79.5,90.6 79.5,100 88.8,100 	"/>
	<polygon fill="#FFFFFF" points="175.4,57 166,57 175.4,66.3 	"/>
	<polygon fill="#FFFFFF" points="175.4,90.6 166,100 175.4,100 	"/>
	<path fill="#FFFFFF" d="M126.5,90.6c-2.8,0-5.4-1-7.2-2.2l-1.2,3.4c1.8,1.3,4.8,2.2,7.7,2.2v5.1h3.2v-5.2c5.2-0.9,7.9-4.6,7.9-8.5
		c0-4.5-2.6-7.1-7.8-9.2c-4.4-1.8-6.2-3.1-6.2-5.7c0-2,1.5-4.3,5.3-4.3c3.2,0,5.3,1.1,6.3,1.7l1.3-3.3c-1.5-0.9-3.5-1.7-6.5-1.8
		v-4.9h-3.1v5.1c-4.6,0.8-7.6,3.9-7.6,8.1c0,4.4,3.2,6.7,8.3,8.7c3.7,1.5,5.7,3.2,5.7,6C132.5,88.5,130,90.6,126.5,90.6z"/>
</g>
</svg>
