<?xml version="1.0" encoding="utf-8"?>
<!-- Generator: Adobe Illustrator 18.0.0, SVG Export Plug-In . SVG Version: 6.00 Build 0)  -->
<!DOCTYPE svg PUBLIC "-//W3C//DTD SVG 1.1//EN" "http://www.w3.org/Graphics/SVG/1.1/DTD/svg11.dtd">
<svg version="1.1" id="vertical" xmlns="http://www.w3.org/2000/svg" xmlns:xlink="http://www.w3.org/1999/xlink" x="0px" y="0px"
	 viewBox="0 0 207.2 195.1" enable-background="new 0 0 207.2 195.1" xml:space="preserve">
<g>
	<g>
		<g>
			<path fill="#FFFFFF" d="M193.3,68.2l1.9-0.2c0,0,0.2,0,0.4,0l11.2-1c0.1-0.5,0.1-1.1,0.2-1.5c0.1-0.9,0.2-1.4,0.2-1.4
				c0-0.1,0-0.2,0-0.3c0-0.1,0-0.2,0-0.3v-1.3c0-2.6-2.1-4.7-4.7-4.7h-44.1c-3.3,0-6.1,2.7-6.1,6.1v1.7c0,3.4,2.7,6.1,6.1,6.1h4.3
				c0,0,0-0.1,0-0.1l30.4-3.1l0,0L193.3,68.2z"/>
			<path fill="#FFFFFF" d="M14.1,124.5l-1.9,0.2c0,0-0.2,0-0.4,0l-11.2,1c-0.1,0.5-0.1,1.1-0.2,1.5c-0.1,0.9-0.2,1.4-0.2,1.4
				c0,0.1,0,0.2,0,0.3c0,0.1-0.1,0.2-0.1,0.3v1.3c0,2.6,2.1,4.7,4.7,4.7h44.1c3.3,0,6.1-2.7,6.1-6.1v-1.7c0-3.4-2.7-6.1-6.1-6.1
				h-4.3c0,0,0,0.1,0,0.1l-30.4,3.1l0,0L14.1,124.5z"/>
			<path fill="#FFFFFF" d="M0,130.5c0,2.6,2.1,4.7,4.7,4.7h5.7c0.3-3.8,1.6-10.5,1.6-10.5s0.5-2.3,0.5-2.4c0.2-0.9,0.5-2,0.8-3
				c0.7-2.2,1.5-4.6,2.6-7.1c0.5-1.3,1.2-2.5,1.8-3.9c0.8-1.3,1.4-2.6,2.3-3.9c1.6-2.7,3.7-5.2,5.9-7.7c2.2-2.5,4.9-4.8,7.7-6.9
				c2.8-2.1,5.9-4,9.2-5.6c3.3-1.6,6.6-3,10.1-4.1c3.5-1.1,6.9-2,10.4-2.6c3.4-0.7,6.8-1.1,10-1.4c1.6-0.1,3.2-0.3,4.7-0.3
				c1.5-0.1,3-0.1,4.4-0.1c1.4,0,2.8,0,4.1,0c1.3,0,2.5,0.1,3.7,0.1c2,0.1,3.8,0.2,5.4,0.4l0.8,0.1l0,0l0,0l3.4,0.6l-1.8-6.9
				l0.7-7.6l-0.3-1.8l-0.3-0.3l-0.2,0l-1.5-0.1c0,0-1.6-0.1-1.6-0.1c-1.2-0.1-2.5-0.1-4-0.1c-1.3,0-2.7,0-4.1,0
				c-1.4,0-3,0.1-4.6,0.2c-1.6,0.1-3.3,0.2-5,0.3c-1.7,0.1-3.5,0.3-5.3,0.6c-3.6,0.5-7.5,1.1-11.4,2c-3.9,0.9-8,2.1-12,3.5
				c-4,1.4-8,3.3-11.9,5.4c-3.9,2.1-7.6,4.6-10.9,7.3c-3.4,2.8-6.5,5.7-9.2,9c-2.7,3.2-5,6.5-6.9,9.8c-1,1.6-1.7,3.3-2.6,4.9
				c-0.7,1.6-1.4,3.2-2,4.7c-1.2,3.1-2.1,5.9-2.7,8.5c-0.3,1.3-0.6,2.5-0.8,3.6C1.2,121,1,122.1,0.8,123c-0.2,1-0.3,1.8-0.4,2.4
				c-0.1,0.7-0.2,1.2-0.2,1.7c-0.1,0.9-0.2,1.9-0.2,2V130.5z"/>
			<path fill="#FFFFFF" d="M207.2,62.2c0-2.6-2.1-4.7-4.7-4.7h-5.7c-0.3,3.8-1.6,10.5-1.6,10.5s-0.5,2.3-0.5,2.4
				c-0.2,0.9-0.5,2-0.8,3c-0.6,2.2-1.5,4.6-2.6,7.1c-0.5,1.3-1.2,2.5-1.8,3.9c-0.8,1.3-1.4,2.6-2.3,3.9c-1.6,2.7-3.7,5.2-5.9,7.7
				c-2.2,2.5-4.9,4.8-7.7,6.9c-2.8,2.1-5.9,4-9.2,5.6c-3.3,1.6-6.6,3-10.1,4.1c-3.5,1.1-6.9,2-10.4,2.6c-3.4,0.7-6.8,1.1-10,1.4
				c-1.6,0.1-3.2,0.3-4.7,0.3c-1.5,0.1-3,0.1-4.4,0.1c-1.4,0-2.8,0-4.1,0c-1.3,0-2.5-0.1-3.7-0.1c-2-0.1-3.8-0.2-5.4-0.4l-0.8-0.1
				l0,0l0,0l-3.4-0.6l1.8,6.9l-0.7,7.6l0.3,1.8l0.3,0.3l0.2,0l1.5,0.1c0,0,1.6,0.1,1.6,0.1c1.2,0.1,2.5,0.1,4,0.1c1.3,0,2.7,0,4.1,0
				c1.4,0,3-0.1,4.6-0.2c1.6-0.1,3.3-0.2,5-0.3c1.7-0.1,3.5-0.3,5.3-0.6c3.6-0.5,7.5-1.1,11.4-2c3.9-0.9,8-2.1,12-3.5
				c4-1.4,8-3.3,11.9-5.4c3.9-2.1,7.6-4.6,10.9-7.3c3.4-2.8,6.5-5.7,9.2-9c2.7-3.2,5-6.5,6.9-9.8c1-1.6,1.7-3.3,2.6-4.9
				c0.7-1.6,1.4-3.2,2-4.7c1.2-3.1,2.1-5.9,2.7-8.5c0.3-1.3,0.6-2.5,0.8-3.6c0.2-1.2,0.4-2.2,0.6-3.2c0.2-1,0.3-1.8,0.4-2.4
				c0.1-0.7,0.2-1.2,0.2-1.7c0.1-0.9,0.2-1.9,0.2-2V62.2z"/>
			<g>
				<path fill="#FFFFFF" d="M135.2,163.1c3.3,0,6-2.7,6-6v-5v-0.5v-4.8c0-3.3-2.7-6-6-6c-3.3,0-6,2.7-6,6v4.5v0.5v5.3
					C129.2,160.4,131.9,163.1,135.2,163.1z"/>
				<path fill="#FFFFFF" d="M141.3,174.3c0-3.2-2.6-5.8-5.8-5.8c-3.2,0-5.8,2.6-5.8,5.8v9H121c-3.2,0-5.9,2.6-5.9,5.9
					s2.6,5.9,5.9,5.9h14.4c3.2,0,5.9-2.6,5.9-5.9C141.3,189,141.3,174.3,141.3,174.3z"/>
				<path fill="#FFFFFF" d="M86,153.7l-4.2-14.1c-1-3.2-4.3-5-7.5-4.1c-3.2,1-5,4.3-4.1,7.5l4.2,14.1c0.9,3.2,4.3,5,7.5,4.1
					C85.2,160.3,87,156.9,86,153.7z"/>
				<path fill="#FFFFFF" d="M105.2,178.1l-11.1-9.7c-2.5-2.2-6.3-1.9-8.5,0.6c-2.2,2.5-2,6.3,0.6,8.5l11.1,9.7
					c2.5,2.2,6.3,2,8.5-0.6C107.9,184.1,107.7,180.3,105.2,178.1z"/>
				<path fill="#FFFFFF" d="M66.4,104.2c-0.1,0.4-0.1,0.8-0.1,1.2v14.8c0,3.3,2.7,6,6,6c3.3,0,6-2.7,6-6v-14.8c0-0.4,0-0.8-0.1-1.2
					C74.3,104.2,70.3,104.3,66.4,104.2z"/>
			</g>
			<g>
				<path fill="#FFFFFF" d="M139.7,89.4c0.1-0.4,0.1-0.8,0.1-1.2V73.5c0-3.3-2.7-6-6-6c-3.3,0-6,2.7-6,6v14.8c0,0.4,0,0.8,0.1,1.2
					C131.9,89.5,135.8,89.4,139.7,89.4z"/>
				<path fill="#FFFFFF" d="M71.3,32c-3.3,0-6,2.7-6,6v5v0.5v4.8c0,3.3,2.7,6,6,6c3.3,0,6-2.7,6-6v-4.5v-0.5V38
					C77.3,34.7,74.7,32,71.3,32z"/>
				<path fill="#FFFFFF" d="M85.5,0H71.2c-3.2,0-5.9,2.6-5.9,5.9c0,0.1,0,14.9,0,14.9c0,3.2,2.6,5.8,5.8,5.8c3.2,0,5.8-2.6,5.8-5.8
					v-9h8.6c3.2,0,5.9-2.6,5.9-5.9C91.4,2.6,88.8,0,85.5,0z"/>
				<path fill="#FFFFFF" d="M132.2,59.5c3.2-1,5-4.3,4.1-7.5l-4.2-14.1c-0.9-3.2-4.3-5-7.5-4.1c-3.2,1-5,4.3-4.1,7.5l4.2,14.1
					C125.7,58.7,129,60.5,132.2,59.5z"/>
				<path fill="#FFFFFF" d="M121,26.1c2.2-2.5,2-6.3-0.6-8.5l-11.1-9.7c-2.5-2.2-6.3-2-8.5,0.6c-2.2,2.5-2,6.3,0.6,8.5l11.1,9.7
					C114.9,28.9,118.8,28.6,121,26.1z"/>
			</g>
			<g>
				<path fill="#FFFFFF" d="M103.6,134.6c-5.7,0-10.3-4.6-10.3-10.3c0-5.7,4.6-10.3,10.3-10.3c5.7,0,10.3,4.6,10.3,10.3
					C113.9,130,109.2,134.6,103.6,134.6z M103.6,119.1c-2.9,0-5.3,2.4-5.3,5.3c0,2.9,2.4,5.3,5.3,5.3c2.9,0,5.3-2.4,5.3-5.3
					C108.8,121.4,106.5,119.1,103.6,119.1z"/>
				<path fill="#FFFFFF" d="M143.8,96.9c0,5.7-4.6,10.3-10.3,10.3c-5.7,0-10.3-4.6-10.3-10.3c0-5.7,4.6-10.3,10.3-10.3
					C139.2,86.5,143.8,91.2,143.8,96.9z M128.2,96.9c0,2.9,2.4,5.3,5.3,5.3c2.9,0,5.3-2.4,5.3-5.3c0-2.9-2.4-5.3-5.3-5.3
					C130.6,91.6,128.2,93.9,128.2,96.9z"/>
				<path fill="#FFFFFF" d="M103.5,58.4c5.7,0,10.3,4.6,10.3,10.3c0,5.7-4.6,10.3-10.3,10.3c-5.7,0-10.3-4.6-10.3-10.3
					C93.2,63,97.9,58.4,103.5,58.4z M103.5,73.9c2.9,0,5.3-2.4,5.3-5.3c0-2.9-2.4-5.3-5.3-5.3c-2.9,0-5.3,2.4-5.3,5.3
					C98.3,71.6,100.6,73.9,103.5,73.9z"/>
				<path fill="#FFFFFF" d="M62.3,96.8c0-5.7,4.6-10.3,10.3-10.3c5.7,0,10.3,4.6,10.3,10.3c0,5.7-4.6,10.3-10.3,10.3
					C67,107.1,62.3,102.5,62.3,96.8z M77.9,96.8c0-2.9-2.4-5.3-5.3-5.3c-2.9,0-5.3,2.4-5.3,5.3c0,2.9,2.4,5.3,5.3,5.3
					C75.6,102.1,77.9,99.7,77.9,96.8z"/>
			</g>
		</g>
	</g>
</g>
</svg>
